<svg width="57" height="58" viewBox="0 0 57 58" fill="none" xmlns="http://www.w3.org/2000/svg">
<path fill-rule="evenodd" clip-rule="evenodd" d="M2.17004 30.2643C11.9023 6.28534 36.9066 0.408652 48.1451 0.426392C49.1804 0.428027 50.0141 1.24102 50.0071 2.24227C50.0002 3.24351 49.1553 4.05385 48.12 4.05222C37.6539 4.0357 14.5846 9.583 5.65917 31.5741C5.28024 32.5078 4.19199 32.9714 3.2285 32.6097C2.265 32.248 1.79111 31.1979 2.17004 30.2643Z" fill="#FF9C00"/>
<path fill-rule="evenodd" clip-rule="evenodd" d="M11.7559 43.1466C14.6799 23.3371 31.9972 14.7356 40.2356 12.8804C41.2291 12.6567 42.2158 13.2807 42.4396 14.2741C42.6633 15.2676 42.0393 16.2543 41.0458 16.4781C33.5485 18.1664 18.0115 26.0205 15.4041 43.6851C15.2554 44.6925 14.3182 45.3887 13.3108 45.24C12.3033 45.0913 11.6072 44.154 11.7559 43.1466Z" fill="#2927A6"/>
<path fill-rule="evenodd" clip-rule="evenodd" d="M29.4775 53.4124C26.5754 37.9918 37.1981 27.2139 42.8105 23.7415C43.6765 23.2057 44.8129 23.4733 45.3487 24.3393C45.8845 25.2053 45.6168 26.3417 44.7508 26.8775C39.7844 29.9503 30.6005 39.4405 33.1017 52.7303C33.29 53.7311 32.6314 54.6951 31.6306 54.8834C30.6299 55.0718 29.6659 54.4132 29.4775 53.4124Z" fill="#FF9C00"/>
</svg>
