<svg width="180" height="80" viewBox="0 0 180 80" fill="none" xmlns="http://www.w3.org/2000/svg">
<path d="M7.27517 51.3438L24.9969 33.4412C24.9969 33.4412 24.997 33.4412 24.997 33.4411C28.9532 29.4436 28.9823 23.6606 25.0524 20.5263L7.27517 51.3438ZM7.27517 51.3438C4.43684 48.7406 4.57364 44.2755 7.66669 41.1527L7.66735 41.1521C9.06871 39.7328 10.4837 38.3062 11.8438 36.9385L11.8447 36.9375L19.2838 29.4237L19.2893 29.4189C19.3067 29.404 19.3322 29.3819 19.3651 29.353C19.4306 29.2952 19.5246 29.2109 19.6409 29.1022C19.8734 28.885 20.1954 28.5699 20.558 28.174C21.281 27.3848 22.1771 26.2617 22.8426 24.9425C23.5089 23.6218 23.9529 22.0864 23.7396 20.4914C23.6836 20.0722 23.5826 19.6522 23.4305 19.2338M7.27517 51.3438L23.4305 19.2338M23.4305 19.2338L25.0523 20.5263L23.4305 19.2338ZM19.27 29.4355C19.2688 29.4366 19.2685 29.4369 19.2707 29.4349L19.27 29.4355Z" fill="#F1684C" stroke="black" stroke-width="0.991896"/>
<path opacity="0.49" d="M7.56289 40.8501L7.56298 40.85C9.27352 39.1508 11.0013 37.4347 12.6197 35.8273C13.7862 34.6687 14.8959 33.5666 15.9013 32.5679C15.844 32.711 15.7897 32.8567 15.7391 33.0048C15.3408 34.1701 15.1639 35.4945 15.5133 36.8562C15.835 38.1103 16.5956 39.367 17.9852 40.5461L7.41906 51.045C4.41163 48.3999 4.46217 43.929 7.56289 40.8501Z" fill="url(#paint0_linear_1_61)" stroke="black" stroke-width="0.991896"/>
<path opacity="0.77" d="M7.54875 40.7067L7.54942 40.706C8.55302 39.7043 9.56344 38.6991 10.5543 37.7134C10.7744 37.4944 10.9936 37.2764 11.2116 37.0595C12.6711 39.9279 12.2754 42.781 11.2789 45.1824C10.2157 47.7449 8.4727 49.7764 7.59228 50.7008L7.40385 50.8882C4.40767 48.2466 4.4579 43.7818 7.54875 40.7067Z" fill="url(#paint1_linear_1_61)" stroke="black" stroke-width="0.991896"/>
<path d="M16.3162 61.6707L34.0379 43.7681C34.038 43.7681 34.038 43.7681 34.038 43.7681C37.9942 39.7705 38.0233 33.9875 34.0934 30.8533L16.3162 61.6707ZM16.3162 61.6707C13.4779 59.0675 13.6147 54.6025 16.7077 51.4797L16.7084 51.479C18.1097 50.0597 19.5247 48.6331 20.8848 47.2654L20.8857 47.2644L28.3248 39.7506L28.3303 39.7458C28.3477 39.7309 28.3733 39.7088 28.4061 39.6799C28.4717 39.6221 28.5657 39.5378 28.682 39.4291C28.9144 39.2119 29.2364 38.8969 29.599 38.5009C30.322 37.7117 31.2181 36.5886 31.8836 35.2694C32.55 33.9487 32.9939 32.4133 32.7807 30.8183C32.7246 30.3991 32.6236 29.9791 32.4715 29.5607M16.3162 61.6707L32.4715 29.5607M32.4715 29.5607L34.0933 30.8532L32.4715 29.5607ZM28.311 39.7624C28.3098 39.7635 28.3095 39.7638 28.3117 39.7618L28.311 39.7624Z" fill="black" stroke="black" stroke-width="0.991896"/>
<path opacity="0.49" d="M16.6039 51.177L16.604 51.1769C18.3145 49.4777 20.0424 47.7616 21.6608 46.1542C22.8273 44.9956 23.9369 43.8935 24.9423 42.8948C24.885 43.0379 24.8307 43.1836 24.7801 43.3317C24.3818 44.497 24.205 45.8214 24.5543 47.1831C24.876 48.4372 25.6366 49.6939 27.0263 50.873L16.4601 61.3719C13.4526 58.7268 13.5032 54.2559 16.6039 51.177Z" fill="url(#paint2_linear_1_61)" stroke="black" stroke-width="0.991896"/>
<path opacity="0.77" d="M16.589 51.0335L16.5897 51.0328C17.5933 50.0311 18.6037 49.0259 19.5945 48.0402C19.8147 47.8212 20.0339 47.6031 20.2518 47.3863C21.7114 50.2547 21.3156 53.1078 20.3192 55.5092C19.256 58.0717 17.513 60.1031 16.6326 61.0276L16.4441 61.215C13.448 58.5734 13.4982 54.1086 16.589 51.0335Z" fill="url(#paint3_linear_1_61)" stroke="black" stroke-width="0.991896"/>
<path d="M44.2194 48C43.8227 48 43.6243 47.8429 43.6243 47.5288V47.4297C43.6243 47.2147 43.8144 46.9172 44.1946 46.537C44.5914 46.1567 44.8807 45.7434 45.0625 45.2971L49.6997 33.2951C49.8484 32.9314 49.7245 32.4851 49.3277 31.9561C48.9309 31.4271 48.7326 31.0964 48.7326 30.9642V30.865C48.7326 30.5509 48.9227 30.3938 49.3029 30.3938H55.0063C55.3865 30.3938 55.5766 30.5509 55.5766 30.865V30.9642C55.5766 31.0799 55.5022 31.2287 55.3535 31.4105C55.2212 31.5759 55.0807 31.7412 54.9319 31.9065C54.7831 32.0553 54.6674 32.2537 54.5847 32.5016C54.5021 32.7331 54.5186 32.9728 54.6343 33.2208L59.8418 45.2971C60.0236 45.7434 60.3047 46.1567 60.6849 46.537C61.0817 46.9006 61.28 47.1982 61.28 47.4297V47.5288C61.28 47.8429 61.0817 48 60.6849 48H54.3368C53.94 48 53.7416 47.8429 53.7416 47.5288V47.4297C53.7416 47.2478 53.8574 47.0577 54.0888 46.8593C54.3368 46.6444 54.5434 46.413 54.7087 46.165C54.8906 45.917 54.9236 45.6277 54.8079 45.2971L54.2376 43.7596H47.9638L47.4183 45.2971C47.3026 45.6277 47.3274 45.917 47.4927 46.165C47.6745 46.413 47.8812 46.6444 48.1126 46.8593C48.3606 47.0577 48.4846 47.2478 48.4846 47.4297V47.5288C48.4846 47.8429 48.2862 48 47.8894 48H44.2194ZM48.6334 41.8998H53.6176L51.1131 35.031L48.6334 41.8998ZM69.6364 35.8493C71.1738 35.8493 72.5294 36.3783 73.7031 37.4363C74.8934 38.4778 75.4886 39.9408 75.4886 41.8254C75.4886 43.7266 74.91 45.2723 73.7527 46.4626C72.6121 47.6528 71.2399 48.248 69.6364 48.248C68.413 48.248 67.4129 47.8843 66.6359 47.1569V47.3801C66.6359 47.8099 66.421 48.0248 65.9912 48.0248L62.2467 48C61.8665 48 61.6764 47.8429 61.6764 47.5288V47.4297C61.6764 47.2313 61.8417 46.9337 62.1724 46.537C62.503 46.1237 62.6683 45.7021 62.6683 45.2723V33.9895C62.6683 33.5597 62.4617 33.1629 62.0484 32.7992C61.6516 32.419 61.4532 32.1297 61.4532 31.9313V31.8321C61.4532 31.5676 61.6764 31.3362 62.1228 31.1378L65.9416 29.3772C66.2557 29.2118 66.5284 29.1788 66.7599 29.278C66.9913 29.3772 67.107 29.6003 67.107 29.9475V36.5932C67.7518 36.0973 68.5949 35.8493 69.6364 35.8493ZM69.2396 47.0329C70.496 47.0329 71.1242 45.9914 71.1242 43.9084C71.1242 42.9165 71.0416 41.9246 70.8762 40.9327C70.7275 39.9408 70.4464 39.0481 70.0331 38.2546C69.6364 37.4611 69.157 37.0643 68.5949 37.0643C68.1485 37.0643 67.7848 37.2627 67.5038 37.6595C67.2393 38.0397 67.107 38.5687 67.107 39.2465V44.0572C67.107 44.8177 67.3219 45.5037 67.7518 46.1154C68.1981 46.7271 68.6941 47.0329 69.2396 47.0329ZM89.2922 45.2723C89.2922 45.7186 89.3418 46.0575 89.441 46.289C89.5567 46.5204 89.6807 46.6527 89.8129 46.6857C89.9617 46.7023 90.0857 46.7601 90.1849 46.8593C90.3006 46.9585 90.3585 47.1156 90.3585 47.3305C90.3585 47.6446 90.1436 47.8595 89.7137 47.9752C89.3004 48.0909 88.664 48.1488 87.8043 48.1488C87.0274 48.1488 86.457 48.0413 86.0933 47.8264C85.7462 47.6115 85.5395 47.2395 85.4734 46.7105C84.8121 47.7355 83.6466 48.248 81.977 48.248C80.6544 48.248 79.5468 47.8182 78.6541 46.9585C77.7779 46.0823 77.3398 44.8838 77.3398 43.3629V39.2217C77.3398 38.7919 77.1745 38.3786 76.8439 37.9819C76.5133 37.5851 76.3479 37.3041 76.3479 37.1387V37.0396C76.3479 36.7089 76.5381 36.5188 76.9183 36.4692L80.6131 35.9733C81.3901 35.8741 81.7786 36.0394 81.7786 36.4692L81.7042 43.8092C81.6876 44.8011 81.8034 45.5203 82.0513 45.9666C82.3158 46.3964 82.7291 46.6113 83.2912 46.6113C83.7541 46.6113 84.1426 46.3882 84.4567 45.9418C84.7708 45.4789 84.9278 44.8755 84.9278 44.1316V39.2217C84.9278 38.7919 84.7625 38.3786 84.4319 37.9819C84.1013 37.5851 83.9359 37.3041 83.9359 37.1387V37.0396C83.9359 36.7089 84.1261 36.5188 84.5063 36.4692L88.2011 35.9733C88.9285 35.8741 89.2922 36.0394 89.2922 36.4692V45.2723ZM92.4837 40.784C92.12 40.784 91.9381 40.5773 91.9381 40.164V39.2217C91.9381 38.8084 92.12 38.6018 92.4837 38.6018H100.493C100.873 38.6018 101.064 38.8084 101.064 39.2217V40.164C101.064 40.5773 100.873 40.784 100.493 40.784H92.4837ZM109.974 48.248C107.809 48.248 106.015 47.7851 104.593 46.8593C103.171 45.9336 102.461 44.8921 102.461 43.7348C102.461 42.5611 103.056 41.9742 104.246 41.9742C104.725 41.9742 105.147 42.1395 105.511 42.4702C105.874 42.7843 106.18 43.1728 106.428 43.6357C106.676 44.082 106.941 44.5366 107.222 44.9995C107.503 45.4459 107.891 45.8261 108.387 46.1402C108.883 46.4543 109.47 46.6113 110.148 46.6113C110.875 46.6113 111.445 46.4295 111.859 46.0658C112.289 45.7021 112.504 45.1979 112.504 44.5532C112.504 43.9084 112.322 43.3712 111.958 42.9413C111.611 42.495 111.148 42.1561 110.569 41.9246C110.007 41.6767 109.379 41.4618 108.685 41.2799C107.99 41.0815 107.296 40.8584 106.602 40.6104C105.907 40.3459 105.271 40.0318 104.692 39.6681C104.13 39.2878 103.667 38.7506 103.304 38.0562C102.94 37.3454 102.758 36.5023 102.758 35.5269C102.758 33.9399 103.37 32.6504 104.593 31.6585C105.816 30.6666 107.445 30.1707 109.478 30.1707C111.479 30.1707 113.165 30.6253 114.537 31.5345C115.926 32.4272 116.612 33.4522 116.595 34.6094C116.595 35.1715 116.43 35.6178 116.099 35.9485C115.785 36.2626 115.322 36.4196 114.71 36.4196C114.165 36.4196 113.702 36.2626 113.322 35.9485C112.942 35.6178 112.636 35.2293 112.404 34.783C112.189 34.3366 111.966 33.8903 111.735 33.4439C111.52 32.981 111.214 32.5926 110.817 32.2785C110.437 31.9478 109.966 31.7825 109.404 31.7825C108.66 31.7825 108.09 31.9891 107.693 32.4024C107.296 32.7992 107.098 33.3199 107.098 33.9647C107.098 34.6755 107.271 35.2789 107.618 35.7749C107.982 36.2543 108.445 36.6263 109.007 36.8908C109.586 37.1553 110.222 37.395 110.916 37.6099C111.611 37.8083 112.297 38.0314 112.975 38.2794C113.669 38.5274 114.297 38.8332 114.859 39.1969C115.438 39.5441 115.901 40.0483 116.248 40.7096C116.612 41.3708 116.793 42.1726 116.793 43.1149C116.793 44.6854 116.132 45.9336 114.81 46.8593C113.504 47.7851 111.892 48.248 109.974 48.248ZM123.14 48.248C121.883 48.248 120.892 47.8512 120.164 47.0577C119.453 46.2642 119.098 45.1318 119.098 43.6605V37.7835H118.156C117.99 37.7835 117.85 37.7339 117.734 37.6347C117.635 37.519 117.585 37.3784 117.585 37.2131V36.6676C117.585 36.2874 117.775 36.0973 118.156 36.0973H118.627C119.387 36.0973 120.04 35.8741 120.586 35.4277C121.131 34.9648 121.487 34.3532 121.652 33.5927C121.735 33.1629 121.958 32.948 122.322 32.948H122.892C123.338 32.948 123.561 33.1629 123.561 33.5927V36.0973H126.116C126.281 36.0973 126.413 36.1551 126.512 36.2708C126.628 36.37 126.686 36.5023 126.686 36.6676V37.2131C126.686 37.3784 126.628 37.519 126.512 37.6347C126.413 37.7339 126.281 37.7835 126.116 37.7835H123.561V43.7348C123.561 44.1481 123.669 44.4788 123.884 44.7267C124.099 44.9582 124.363 45.0739 124.677 45.0739C125.388 45.0739 125.934 44.7681 126.314 44.1564C126.43 44.0076 126.562 43.925 126.711 43.9084C126.859 43.8754 126.983 43.9002 127.083 43.9828C127.198 44.0655 127.256 44.1812 127.256 44.33C127.256 45.3715 126.884 46.289 126.14 47.0825C125.413 47.8595 124.413 48.248 123.14 48.248ZM140.655 45.2723C140.655 45.7186 140.704 46.0575 140.804 46.289C140.919 46.5204 141.043 46.6527 141.175 46.6857C141.324 46.7023 141.448 46.7601 141.547 46.8593C141.663 46.9585 141.721 47.1156 141.721 47.3305C141.721 47.6446 141.506 47.8595 141.076 47.9752C140.663 48.0909 140.027 48.1488 139.167 48.1488C138.39 48.1488 137.82 48.0413 137.456 47.8264C137.109 47.6115 136.902 47.2395 136.836 46.7105C136.175 47.7355 135.009 48.248 133.34 48.248C132.017 48.248 130.909 47.8182 130.017 46.9585C129.14 46.0823 128.702 44.8838 128.702 43.3629V39.2217C128.702 38.7919 128.537 38.3786 128.206 37.9819C127.876 37.5851 127.711 37.3041 127.711 37.1387V37.0396C127.711 36.7089 127.901 36.5188 128.281 36.4692L131.976 35.9733C132.753 35.8741 133.141 36.0394 133.141 36.4692L133.067 43.8092C133.05 44.8011 133.166 45.5203 133.414 45.9666C133.678 46.3964 134.092 46.6113 134.654 46.6113C135.117 46.6113 135.505 46.3882 135.819 45.9418C136.133 45.4789 136.29 44.8755 136.29 44.1316V39.2217C136.29 38.7919 136.125 38.3786 135.794 37.9819C135.464 37.5851 135.299 37.3041 135.299 37.1387V37.0396C135.299 36.7089 135.489 36.5188 135.869 36.4692L139.564 35.9733C140.291 35.8741 140.655 36.0394 140.655 36.4692V45.2723ZM155.327 45.2971C155.327 45.7104 155.493 46.1237 155.823 46.537C156.154 46.9337 156.319 47.2313 156.319 47.4297V47.5288C156.319 47.8429 156.129 48 155.749 48H152.203C151.773 48 151.558 47.7934 151.558 47.3801V47.1569C150.781 47.8843 149.773 48.248 148.533 48.248C146.929 48.248 145.549 47.7024 144.392 46.6113C143.251 45.5037 142.681 43.9828 142.681 42.0486C142.681 40.2467 143.259 38.7671 144.417 37.6099C145.574 36.4361 146.954 35.8493 148.558 35.8493C149.566 35.8493 150.418 36.0807 151.112 36.5436V33.2455C151.112 32.9149 151.004 32.6339 150.79 32.4024C150.575 32.1545 150.351 31.9478 150.12 31.7825C149.905 31.6007 149.798 31.4105 149.798 31.2122V31.1378C149.798 30.8237 149.988 30.6088 150.368 30.493L154.236 29.3276C154.964 29.0961 155.327 29.2945 155.327 29.9227V45.2971ZM149.525 47.0329C149.971 47.0494 150.343 46.8676 150.641 46.4874C150.955 46.1071 151.112 45.5947 151.112 44.9499V40.164C151.112 39.3705 150.88 38.6596 150.418 38.0314C149.971 37.3867 149.459 37.0643 148.88 37.0643C147.657 37.0643 147.004 38.081 146.921 40.1144C146.888 40.8914 146.954 41.7924 147.12 42.8173C147.301 43.8423 147.599 44.8011 148.012 45.6938C148.442 46.57 148.946 47.0164 149.525 47.0329ZM160.705 34.6342C159.861 34.6342 159.175 34.4028 158.646 33.9399C158.117 33.4605 157.853 32.8653 157.853 32.1545C157.853 31.4436 158.117 30.8567 158.646 30.3938C159.175 29.9144 159.861 29.6747 160.705 29.6747C161.531 29.6747 162.209 29.9144 162.738 30.3938C163.267 30.8567 163.532 31.4436 163.532 32.1545C163.532 32.8653 163.267 33.4605 162.738 33.9399C162.209 34.4028 161.531 34.6342 160.705 34.6342ZM158.051 48C157.655 48 157.456 47.8429 157.456 47.5288V47.4297C157.456 47.2313 157.621 46.9254 157.952 46.5122C158.283 46.0989 158.448 45.6856 158.448 45.2723V40.5608C158.448 40.131 158.283 39.7177 157.952 39.3209C157.621 38.9076 157.456 38.6266 157.456 38.4778V38.3786C157.456 38.1802 157.646 37.9901 158.026 37.8083L161.771 35.9733C162.118 35.8245 162.391 35.8079 162.589 35.9237C162.788 36.0394 162.887 36.2295 162.887 36.494V45.2723C162.887 45.6856 163.069 46.0989 163.432 46.5122C163.813 46.9254 164.003 47.2313 164.003 47.4297V47.5288C164.003 47.8429 163.796 48 163.383 48H158.051ZM171.828 48.248C169.91 48.248 168.282 47.6611 166.943 46.4874C165.62 45.2971 164.959 43.8092 164.959 42.0238C164.959 40.2384 165.62 38.7671 166.943 37.6099C168.265 36.4361 169.836 35.8493 171.654 35.8493C173.539 35.8493 175.143 36.4361 176.465 37.6099C177.788 38.7836 178.449 40.2715 178.449 42.0734C178.449 43.8588 177.804 45.3384 176.515 46.5122C175.225 47.6694 173.663 48.248 171.828 48.248ZM172.349 47.0329C173.407 47.0329 173.936 46.0162 173.936 43.9828C173.936 43.2389 173.828 42.3545 173.613 41.3295C173.415 40.3045 173.068 39.3374 172.572 38.4282C172.092 37.519 171.555 37.0643 170.96 37.0643C170.381 37.0643 169.968 37.3206 169.72 37.8331C169.472 38.3455 169.348 39.1225 169.348 40.164C169.348 40.7096 169.414 41.3543 169.547 42.0982C169.679 42.8421 169.861 43.5943 170.092 44.3548C170.324 45.0987 170.638 45.7352 171.034 46.2642C171.448 46.7767 171.886 47.0329 172.349 47.0329Z" fill="black"/>
<defs>
<linearGradient id="paint0_linear_1_61" x1="22.071" y1="31.4712" x2="6.75276" y2="51.2075" gradientUnits="userSpaceOnUse">
<stop stop-color="white"/>
<stop offset="1" stop-color="white" stop-opacity="0"/>
</linearGradient>
<linearGradient id="paint1_linear_1_61" x1="14.5756" y1="38.7402" x2="5.65646" y2="50.2093" gradientUnits="userSpaceOnUse">
<stop/>
<stop offset="1" stop-opacity="0"/>
</linearGradient>
<linearGradient id="paint2_linear_1_61" x1="31.112" y1="41.7981" x2="15.7938" y2="61.5344" gradientUnits="userSpaceOnUse">
<stop stop-color="white"/>
<stop offset="1" stop-color="white" stop-opacity="0"/>
</linearGradient>
<linearGradient id="paint3_linear_1_61" x1="23.6159" y1="49.067" x2="14.6967" y2="60.5361" gradientUnits="userSpaceOnUse">
<stop/>
<stop offset="1" stop-opacity="0"/>
</linearGradient>
</defs>
</svg>
