<svg width="283" height="15" viewBox="0 0 283 15" fill="none" xmlns="http://www.w3.org/2000/svg">
<path fill-rule="evenodd" clip-rule="evenodd" d="M249.325 2.23715C248.981 2.30818 248.506 2.38542 247.896 2.47028C246.92 2.606 245.942 2.73717 244.962 2.86402C250.065 2.84213 255.168 2.82531 260.27 2.81395C272.533 2.78667 278.732 2.80213 281.044 2.84094C281.603 2.85034 281.979 2.86146 282.149 2.87826C282.173 2.88072 282.211 2.88487 282.252 2.89202C282.272 2.89551 282.306 2.902 282.346 2.91312L282.348 2.91345C282.373 2.9204 282.474 2.94805 282.586 3.01607C282.651 3.05941 282.799 3.19559 282.875 3.29465C282.963 3.46261 283.027 3.86203 282.989 4.0763C282.924 4.23425 282.761 4.45843 282.681 4.53071C282.626 4.57125 282.53 4.62896 282.489 4.64876C282.365 4.70516 282.251 4.72184 282.246 4.72269C282.145 4.74014 282.001 4.74891 281.886 4.75521C281.346 4.78467 280.109 4.81663 278.47 4.8491C271.887 4.9795 258.496 5.12357 255.796 5.12357C246.842 5.12357 237.87 5.05928 228.885 4.96424C228.853 5.43201 228.519 5.7182 228.322 5.83717C228.098 5.97225 227.841 6.04015 227.638 6.08123C226.822 6.24574 225.381 6.24303 223.826 6.19285C222.573 6.15238 221.198 6.07923 219.86 6.00805C217.726 5.89448 215.687 5.78595 214.384 5.82326C212.613 5.87396 210.917 5.92003 209.278 5.96203C202.775 6.32983 196.274 6.63187 189.81 6.93218C184.107 7.19711 178.434 7.46069 172.814 7.76688C171.997 7.81141 171.18 7.85593 170.362 7.90041C147.802 9.43561 125.251 11.2151 102.716 13.1007C104.276 13.0896 105.839 13.0814 107.404 13.0814H159.261C159.765 13.0814 160.175 13.494 160.175 14.0029C160.175 14.5118 159.765 14.9244 159.261 14.9244H107.404C105.054 14.9244 102.695 14.9432 100.332 14.9621C95.5895 15 90.8301 15.038 86.0847 14.9241C85.9476 14.9208 85.8192 14.9143 85.7104 14.9014C85.6578 14.8952 85.5859 14.8847 85.5096 14.8649L85.5056 14.8639C85.4649 14.8536 85.2534 14.8002 85.0689 14.6231C84.9471 14.5061 84.7841 14.281 84.7805 13.9566C84.7771 13.6491 84.9201 13.4359 85.0059 13.3353C85.1495 13.1669 85.3204 13.0907 85.3588 13.0735L85.3622 13.072C85.4789 13.0195 85.6064 12.9859 85.69 12.9654C86.0555 12.8757 86.7297 12.771 87.4735 12.6693C88.9926 12.4617 91.0202 12.2387 92.0486 12.1513C98.995 11.5608 105.944 10.9782 112.894 10.4078C96.0607 10.8059 79.2215 10.7727 62.4486 9.94508C59.9678 9.82267 58.1614 9.65936 56.977 9.46615C56.3951 9.37122 55.9086 9.2608 55.556 9.12195C55.3889 9.05619 55.17 8.95336 54.9879 8.78294C54.7859 8.59383 54.5293 8.20692 54.6667 7.70323C54.7569 7.37262 54.9795 7.16892 55.1269 7.06103C37.0605 7.35604 18.9941 7.64976 0.927901 7.92369C0.423088 7.93135 0.00769923 7.52505 0.000105554 7.0162C-0.00748805 6.50735 0.395588 6.08864 0.900402 6.08098C20.2358 5.7878 39.573 5.47193 58.9115 5.15604C63.2385 5.08536 67.5656 5.01468 71.8928 4.94425C86.6242 3.82011 101.417 3.14208 116.241 2.76021C119.115 2.58589 122.482 2.4318 125.691 2.30331C131.497 2.07086 136.864 1.91982 138.061 1.88613C138.142 1.88385 138.204 1.88211 138.245 1.88092C164.997 1.11432 191.763 0.768119 218.518 0.558244C221.297 0.536441 225.645 0.424373 230.227 0.30625C233.677 0.217311 237.26 0.12494 240.408 0.0650833C244.049 -0.0041619 247.126 -0.0303117 248.692 0.0477677C249.076 0.066967 249.415 0.0942828 249.657 0.138491C249.742 0.15414 249.958 0.193736 250.151 0.311231C250.231 0.35996 250.543 0.562055 250.608 0.99083C250.681 1.46723 250.391 1.76812 250.291 1.85703C250.174 1.96059 250.054 2.0182 249.994 2.04538C249.92 2.07805 249.847 2.10367 249.782 2.124C249.651 2.16475 249.495 2.20195 249.325 2.23715ZM115.402 6.09734C100.926 6.31773 86.4508 6.55048 71.9752 6.78608C68.6845 7.03749 65.3968 7.31122 62.1122 7.60896C61.0994 7.70077 60.1992 7.79835 59.4195 7.89921C60.287 7.97517 61.3227 8.0444 62.538 8.10436C95.3011 9.72097 128.331 8.29818 161.153 6.55149C146.579 6.65231 131.972 6.68399 117.407 6.21207C116.896 6.19553 116.187 6.15478 115.402 6.09734ZM227.234 5.34636C227.233 5.34631 227.226 5.34067 227.216 5.32939C227.23 5.34073 227.235 5.3464 227.234 5.34636ZM210.821 2.89827C208.655 2.86907 206.488 2.8394 204.32 2.80972C200.479 2.75711 196.636 2.70449 192.792 2.65444C201.372 2.54973 209.952 2.46841 218.532 2.40111C221.32 2.37924 225.704 2.2663 230.308 2.14773C232.405 2.0937 234.548 2.03849 236.607 1.9902C233.148 2.35717 229.675 2.67869 226.192 2.96485C225.715 2.85739 225.194 2.77458 224.645 2.70979C223.427 2.56613 221.978 2.50146 220.394 2.49348C217.527 2.47902 214.161 2.65053 210.821 2.89827ZM249.353 1.95619C249.364 1.95855 249.368 1.95997 249.368 1.96008C249.368 1.9602 249.362 1.95902 249.353 1.95619Z" fill="#FF9C00"/>
</svg>
